<svg width="1916" height="1046" viewBox="0 0 1916 1046" fill="none" xmlns="http://www.w3.org/2000/svg">
<rect y="829" width="1916" height="235" fill="#FEF5F1"/>
<path d="M922.031 226C921.666 223.831 924.584 219.452 927.773 219.519C929.04 219.545 930.28 219.873 931.546 219.811C934.918 219.647 936.663 217.068 937.966 214.93C939.263 212.792 941.853 210.351 945.141 210.895C949.873 211.674 952.254 217.817 957.632 213.207C961.155 210.187 961.415 205.967 965.401 203.039C968.137 201.029 972.587 199.84 976.256 200.953C981.045 202.404 982.822 207.07 987.918 207.885C993.566 208.787 997.626 204.557 999.424 201.511C1001.61 197.815 1002.43 193.815 1004.3 190.052C1006.03 186.57 1009.52 181.899 1015.76 182.002C1021.05 182.089 1023.37 185.375 1025.97 187.99C1029.34 191.39 1036.35 203.588 1044.21 202.117C1047.27 201.542 1048.8 199.148 1051.56 198.076C1056.01 196.353 1061.68 198.722 1064.36 201.701C1067.04 204.68 1068.1 208.28 1071.13 211.1C1071.91 211.828 1072.86 212.52 1074.09 212.848C1078.32 213.986 1082.26 210.484 1086.78 210.223C1089.91 210.043 1092.8 211.489 1094.6 213.248C1096.39 215.012 1097.37 217.089 1098.74 219.022C1099.12 219.56 1099.56 220.103 1100.25 220.468C1102.24 221.514 1105.03 220.632 1107.47 220.221C1113.47 219.206 1120.31 221.919 1122 226H922.031Z" fill="#F2F8FF"/>
<path d="M1081.06 85.8132C1080.36 81.5832 1085.96 73.0432 1092.08 73.1732C1094.51 73.2232 1096.89 73.8632 1099.32 73.7432C1105.79 73.4232 1109.14 68.3932 1111.64 64.2232C1114.13 60.0532 1119.1 55.2932 1125.41 56.3532C1134.49 57.8732 1139.06 69.8532 1149.38 60.8632C1156.14 54.9732 1156.64 46.7432 1164.29 41.0332C1169.54 37.1132 1178.08 34.7932 1185.12 36.9632C1194.31 39.7932 1197.72 48.8932 1207.5 50.4832C1218.34 52.2432 1226.13 43.9932 1229.58 38.0532C1233.78 30.8432 1235.34 23.0432 1238.93 15.7032C1242.26 8.91324 1248.95 -0.196763 1260.94 0.0032369C1271.08 0.173237 1275.54 6.58324 1280.52 11.6832C1286.99 18.3132 1300.44 42.1032 1315.52 39.2332C1321.4 38.1132 1324.34 33.4432 1329.64 31.3532C1338.17 27.9932 1349.05 32.6132 1354.19 38.4232C1359.33 44.2332 1361.37 51.2532 1367.18 56.7532C1368.68 58.1732 1370.51 59.5232 1372.87 60.1632C1380.98 62.3832 1388.54 55.5532 1397.22 55.0432C1403.22 54.6932 1408.78 57.5132 1412.22 60.9432C1415.67 64.3832 1417.55 68.4332 1420.18 72.2032C1420.91 73.2532 1421.75 74.3132 1423.08 75.0232C1426.89 77.0632 1432.25 75.3432 1436.92 74.5432C1448.45 72.5632 1461.56 77.8532 1464.81 85.8132H1081.06Z" fill="#F2F8FF"/>
<path d="M740.031 80C739.666 77.8311 742.584 73.4523 745.773 73.5189C747.04 73.5446 748.28 73.8727 749.546 73.8112C752.918 73.6471 754.663 71.068 755.966 68.9299C757.263 66.7918 759.853 64.3511 763.141 64.8946C767.873 65.674 770.254 71.8166 775.632 67.2071C779.155 64.1871 779.415 59.9672 783.401 57.0394C786.137 55.0295 790.587 53.8399 794.256 54.9526C799.045 56.4036 800.822 61.0696 805.918 61.8848C811.566 62.7873 815.626 58.5572 817.424 55.5115C819.612 51.8146 820.425 47.8152 822.296 44.0517C824.031 40.5702 827.517 35.8991 833.765 36.0017C839.049 36.0888 841.373 39.3755 843.968 41.9905C847.339 45.39 854.348 57.5881 862.206 56.1165C865.27 55.5422 866.802 53.1477 869.564 52.0761C874.009 50.3533 879.678 52.7222 882.357 55.7012C885.035 58.6802 886.098 62.2797 889.126 65.0997C889.907 65.8278 890.861 66.52 892.091 66.8482C896.317 67.9865 900.256 64.4844 904.779 64.2229C907.906 64.0435 910.803 65.4894 912.596 67.2481C914.394 69.012 915.373 71.0886 916.744 73.0216C917.124 73.56 917.562 74.1035 918.255 74.4675C920.24 75.5135 923.033 74.6316 925.467 74.2214C931.475 73.2062 938.306 75.9186 940 80H740.031Z" fill="#F2F8FF"/>
</svg>
