<svg width="1888" height="1080" viewBox="0 0 1888 1080" fill="none" xmlns="http://www.w3.org/2000/svg">
<g clip-path="url(#clip0)">
<path d="M2246.83 710.387C2249.53 658.702 2252.19 607.018 2254.85 555.334C2259.7 461.15 2264.55 366.928 2265.55 272.622C2265.94 236.411 2265.79 199.987 2260.46 164.09C2255.59 131.25 2250.73 98.3033 2223.36 76.3028C2169.2 32.7539 2095.54 11.4429 2027.61 2.73306C1963.01 -5.54775 1897.73 -1.48778 1832.81 -2.75173C1717 -5.01153 1573.98 -11.2087 1483.44 72.511C1446.37 106.783 1430.8 156.039 1393.08 189.017C1359.85 218.08 1318.73 225.993 1278.67 241.207C1237.46 256.857 1197.13 278.015 1167.93 311.873C1142.45 341.404 1127.69 377.944 1114.63 414.215C1102.02 449.223 1093.47 490.497 1065.57 516.925C1042.81 538.496 1011.54 545.973 983.427 557.816C952.72 570.754 922.204 592.67 902.184 619.566C868.161 665.26 881.865 728.273 850.43 775.155C821.652 818.075 770.801 838.628 728.725 865.462C692.75 888.405 655.964 920.8 643.209 963.79C627.231 1017.63 650.023 1058.25 705.374 1067.33C765.465 1077.2 826.391 1068.91 886.856 1071.43C940.279 1073.65 993.418 1074.98 1047.23 1077.5C1172.94 1083.39 1299.12 1080.59 1424.44 1093.63C1428.19 1094.02 1431.95 1094.43 1435.71 1094.85C1509.8 1103.12 1581.3 1111.91 1653.74 1129.59C1733.76 1149.12 1813.3 1170.57 1892.82 1192.04C1945.97 1206.4 2000.03 1221.34 2055.04 1219.21C2110.05 1217.08 2167.24 1194.97 2197.92 1149.23C2223.74 1110.73 2227.35 1061.98 2230.06 1015.7C2236.02 913.952 2241.5 812.177 2246.83 710.387Z" fill="#F2F8FF"/>
</g>
<path d="M1629.52 495.468C1623.6 495.433 1617.85 494.67 1613.79 488.852C1605.82 477.432 1593.67 467.178 1580.04 478.792C1572.17 485.492 1578.09 499.265 1571.32 505.895C1565.34 511.755 1557.73 510.79 1554.67 520.516C1550.17 534.824 1564.35 547.362 1568.91 559.74C1572.73 570.126 1564.13 574.083 1560.27 582.171C1557.3 588.412 1558.82 595.091 1562.07 601.054C1567.79 611.572 1580.47 620.035 1577.53 633.656C1575.08 645.02 1572.8 655.149 1582.82 663.765C1589.68 669.666 1602.42 675.053 1601.45 685.98C1601.1 689.847 1598.43 693.145 1597.7 696.956C1596.54 702.989 1600.44 708.862 1604.98 713.007C1615.29 722.427 1624.35 731.314 1632.07 743.171C1635.37 748.239 1648.59 759.673 1643.31 766.602C1652.91 754.015 1663.06 741.804 1671.79 728.571C1678.96 717.686 1689.78 701.767 1682.41 688.361C1680.13 684.189 1675.86 681.086 1674.7 676.469C1672.59 668.138 1680.76 660.411 1683.8 653.33C1688.57 642.202 1685.07 629.275 1676.67 620.923C1672.69 616.973 1668.37 612.627 1667.79 607.046C1667.15 600.95 1670.97 595.271 1672.7 589.655C1674.3 584.476 1675.29 578.964 1675.88 573.583C1676.29 569.786 1676.44 565.898 1675.55 562.177C1673.85 555.11 1667.49 551.18 1662.79 546.168C1651.59 534.227 1657.48 520.19 1652.59 506.312C1648.2 493.843 1638.66 495.517 1629.52 495.468Z" fill="#1D7E8E"/>
<path d="M1645.64 780.882L1643.38 780.688C1647.23 736.569 1644.38 688.604 1634.93 638.14C1625.07 585.517 1613.6 543.53 1598.84 505.993C1593.11 491.407 1586.81 477.591 1580.12 464.929L1582.12 463.866C1588.85 476.606 1595.19 490.497 1600.95 505.16C1615.76 542.829 1627.27 584.955 1637.15 637.724C1646.65 688.389 1649.5 736.555 1645.64 780.882Z" fill="#00A09D"/>
<path d="M1621.53 572.125C1618.51 568.946 1616.19 567.481 1613.24 565.634C1612.07 564.898 1610.74 564.065 1609.25 563.038C1588.76 549.028 1566.51 537.733 1543.12 529.465L1543.87 527.326C1567.45 535.657 1589.88 547.043 1610.53 561.163C1611.99 562.163 1613.24 562.948 1614.45 563.711C1617.53 565.648 1619.97 567.169 1623.18 570.563L1621.53 572.125Z" fill="#00A09D"/>
<path d="M1632.86 623.436C1610.58 609.017 1584.96 599.11 1558.77 594.799L1559.14 592.557C1585.63 596.917 1611.54 606.934 1634.09 621.527L1632.86 623.436Z" fill="#00A09D"/>
<path d="M1641.64 684.918C1620.78 666.819 1595.51 654.115 1568.54 648.179L1569.03 645.964C1596.35 651.976 1621.98 664.854 1643.12 683.203L1641.64 684.918Z" fill="#00A09D"/>
<path d="M1622.32 569.848L1620.06 569.703C1621.71 544.148 1627.95 519.377 1638.58 496.086L1640.64 497.03C1630.12 520.072 1623.95 544.571 1622.32 569.848Z" fill="#00A09D"/>
<path d="M1634.21 620.882L1632.16 619.924C1642.83 597.076 1658.45 576.18 1677.33 559.49L1678.82 561.191C1660.17 577.679 1644.75 598.319 1634.21 620.882Z" fill="#00A09D"/>
<path d="M1644.88 686.043L1642.67 685.578C1644.17 678.392 1646.77 671.512 1650.41 665.132C1654.7 657.607 1660.29 651.025 1665.65 644.93C1669.63 640.403 1673.72 635.884 1677.82 631.503L1679.47 633.052C1675.4 637.418 1671.32 641.917 1667.36 646.429C1662.08 652.435 1656.57 658.912 1652.39 666.257C1648.86 672.429 1646.34 679.086 1644.88 686.043Z" fill="#00A09D"/>
<path d="M1702.26 582.463C1706.56 583.261 1710.83 583.504 1714.58 579.845C1721.93 572.667 1732.17 566.912 1740.45 577.228C1745.23 583.178 1739.04 592.349 1743.03 598.097C1746.56 603.179 1752.22 603.526 1753.09 611.01C1754.38 622.013 1742.35 629.143 1737.34 637.488C1733.13 644.493 1738.82 648.554 1740.5 654.955C1741.8 659.891 1739.77 664.528 1736.58 668.402C1730.98 675.24 1720.61 679.621 1720.86 689.902C1721.07 698.483 1721.32 706.148 1712.87 711.007C1707.07 714.34 1697.09 716.478 1696.28 724.538C1696 727.391 1697.48 730.154 1697.48 733.021C1697.49 737.562 1693.85 741.276 1689.99 743.65C1681.2 749.058 1673.4 754.244 1666.16 761.777C1663.07 764.991 1651.9 771.461 1654.77 777.216C1649.55 766.754 1643.87 756.493 1639.37 745.684C1635.67 736.791 1630.03 723.747 1637.22 715.041C1639.46 712.333 1642.98 710.667 1644.46 707.488C1647.14 701.739 1642.28 694.998 1641.06 689.437C1639.14 680.704 1643.46 671.818 1650.72 666.923C1654.15 664.605 1657.88 662.05 1659.07 658.086C1660.37 653.754 1658.39 649.102 1657.91 644.791C1657.47 640.813 1657.51 636.675 1657.84 632.698C1658.06 629.886 1658.49 627.039 1659.65 624.471C1661.85 619.576 1667.01 617.612 1671.11 614.627C1680.89 607.518 1678.56 596.521 1684.02 587.135C1688.94 578.7 1695.63 581.241 1702.26 582.463Z" fill="#00A09D"/>
<path d="M1653.07 787.463L1650.82 787.234C1654.15 754.515 1662.88 719.949 1676.78 684.487C1691.25 647.561 1705.43 618.591 1721.39 593.3C1727.6 583.455 1734.12 574.25 1740.77 565.926L1742.54 567.342C1735.95 575.597 1729.47 584.733 1723.31 594.508C1707.42 619.674 1693.31 648.526 1678.89 685.314C1665.07 720.588 1656.38 754.952 1653.07 787.463Z" fill="#1D7E8E"/>
<path d="M1697.64 639.425L1696.32 637.578C1699.14 635.544 1701.13 634.766 1703.66 633.781C1704.64 633.399 1705.65 633.003 1706.85 632.482C1723.8 625.089 1741.67 619.937 1759.95 617.154L1760.29 619.396C1742.2 622.145 1724.53 627.248 1707.76 634.565C1706.52 635.1 1705.44 635.523 1704.49 635.898C1702.01 636.863 1700.23 637.557 1697.64 639.425Z" fill="#1D7E8E"/>
<path d="M1682.26 675.108L1681.41 673.005C1699.82 665.535 1720.04 661.849 1739.9 662.355L1739.84 664.625C1720.29 664.126 1700.39 667.75 1682.26 675.108Z" fill="#1D7E8E"/>
<path d="M1667.43 718.47L1666.29 716.506C1684.21 706.106 1704.62 700.302 1725.32 699.726L1725.39 701.996C1705.07 702.558 1685.02 708.251 1667.43 718.47Z" fill="#1D7E8E"/>
<path d="M1699.17 637.661L1696.92 637.384C1699.22 618.854 1698.14 600.263 1693.7 582.129L1695.91 581.588C1700.4 599.992 1701.5 618.861 1699.17 637.661Z" fill="#1D7E8E"/>
<path d="M1681.23 672.866C1676.72 655.08 1668.4 638.001 1657.17 623.492L1658.96 622.103C1670.37 636.856 1678.83 654.219 1683.42 672.304L1681.23 672.866Z" fill="#1D7E8E"/>
<path d="M1664.48 718.581C1664.39 713.368 1663.49 708.216 1661.79 703.28C1659.78 697.393 1656.69 691.951 1653.7 686.883C1651.46 683.064 1649.12 679.239 1646.76 675.504L1648.68 674.289C1651.04 678.038 1653.39 681.891 1655.65 685.723C1658.7 690.895 1661.85 696.456 1663.94 702.545C1665.7 707.703 1666.65 713.083 1666.74 718.54L1664.48 718.581Z" fill="#1D7E8E"/>
<path d="M1610.13 775.155H1698.02L1682.6 863.225H1625.55L1610.13 775.155Z" fill="#9D786A"/>
<path d="M1599.37 775.156H1708.78V750.434H1599.37V775.156Z" fill="#94624F"/>
<g opacity="0.1">
<path opacity="0.1" d="M1695.98 786.839H1612.17L1610.13 775.155H1698.02L1695.98 786.839Z" fill="#231F20"/>
</g>
<path d="M1175.3 809.818H1053.44V820.946H1175.3V809.818Z" fill="#94624F"/>
<path d="M1167.84 631.385H1062.76V649.436H1167.84V631.385Z" fill="#94624F"/>
<path d="M1198.45 619.084H1032.14V631.392H1198.45V619.084Z" fill="#9D786A"/>
<path d="M1193.75 863.552H1180.43L1154.62 649.436H1167.94L1193.75 863.552Z" fill="#94624F"/>
<path d="M1036.85 863.552H1050.16L1075.97 649.436H1062.66L1036.85 863.552Z" fill="#94624F"/>
<path d="M1120.01 631.385H1110.59V863.552H1120.01V631.385Z" fill="#9D786A"/>
<path d="M1123.43 537.363L1123.36 543.666L1123.81 543.671L1123.88 537.368L1123.43 537.363Z" fill="#151614"/>
<path d="M1135.72 544.203H1111.7V612.912H1135.72V544.203Z" fill="#D74034"/>
<path d="M1135.72 544.203H1111.7L1113.67 541.947H1133.67L1135.72 544.203Z" fill="#EF5132"/>
<path d="M1154.44 548.85L1154.36 555.153L1154.81 555.158L1154.89 548.855L1154.44 548.85Z" fill="#151614"/>
<path d="M1166.72 555.693H1142.7V612.912H1166.72V555.693Z" fill="#D74034"/>
<path d="M1166.73 555.693H1142.7L1144.67 553.437H1164.67L1166.73 555.693Z" fill="#EF5132"/>
<path d="M1170.95 618.861H1106.99C1105.14 618.861 1103.64 617.362 1103.64 615.508V612.919H1174.3V615.508C1174.3 617.355 1172.8 618.861 1170.95 618.861Z" fill="#0B2D4E"/>
<path d="M1082.75 619.015H1073.24C1063.28 619.015 1055.21 610.934 1055.21 600.965V553.659H1100.78V600.965C1100.78 610.934 1092.7 619.015 1082.75 619.015Z" fill="#00A09D"/>
<path d="M1103.95 568.439C1093.03 568.439 1084.16 577.436 1084.16 588.544C1084.16 599.645 1093.03 608.649 1103.95 608.649C1114.88 608.649 1123.74 599.652 1123.74 588.544C1123.74 577.436 1114.88 568.439 1103.95 568.439ZM1103.95 601.471C1096.92 601.471 1091.22 595.681 1091.22 588.537C1091.22 581.394 1096.92 575.604 1103.95 575.604C1110.98 575.604 1116.68 581.394 1116.68 588.537C1116.68 595.681 1110.98 601.471 1103.95 601.471Z" fill="#00A09D"/>
<g opacity="0.2">
<path opacity="0.2" d="M1062.02 594.202C1060.67 594.202 1059.56 593.091 1059.56 591.738V559.928C1059.56 558.574 1060.67 557.463 1062.02 557.463C1063.37 557.463 1064.48 558.574 1064.48 559.928V591.738C1064.48 593.091 1063.37 594.202 1062.02 594.202Z" fill="white"/>
</g>
<path d="M1090.25 553.652V607.455C1090.25 613.835 1085.09 619.007 1078.71 619.007H1089.23C1095.6 619.007 1100.77 613.835 1100.77 607.455V553.652H1090.25Z" fill="#1D7E8E"/>
<path d="M1310.6 781.868H1475.25C1520.92 781.868 1557.76 744.442 1557.09 698.712L1557.19 469.559C1556.54 424.76 1520.08 388.792 1475.34 388.792H1313.94C1269.19 388.792 1232.74 424.767 1232.09 469.559L1228.75 698.712C1228.09 744.442 1264.92 781.868 1310.6 781.868Z" fill="#66BBC4"/>
<path d="M1310.6 783.006H1475.25C1520.92 783.006 1557.76 745.58 1557.09 699.851C1557.09 699.851 1557.7 569.182 1557.16 538.809C1482.94 641.48 1305.54 642.514 1231.08 539.962C1230.43 579.845 1228.75 699.851 1228.75 699.851C1228.09 745.58 1264.92 783.006 1310.6 783.006Z" fill="#66A5AF"/>
<path d="M1273.94 644.923H1514.2C1517.07 644.923 1519.4 647.256 1519.4 650.13V703.322C1519.4 706.196 1517.07 708.529 1514.2 708.529H1273.94C1271.07 708.529 1268.74 706.196 1268.74 703.322V650.13C1268.74 647.249 1271.07 644.923 1273.94 644.923Z" fill="#66BBC4"/>
<path d="M1277.61 644.923H1511.09C1515.83 644.923 1519.68 648.769 1519.68 653.518H1269.02C1269.03 648.769 1272.87 644.923 1277.61 644.923Z" fill="#8ED2CC"/>
<path d="M1277.33 708.522H1510.81C1515.56 708.522 1519.4 704.676 1519.4 699.927H1268.74C1268.74 704.676 1272.59 708.522 1277.33 708.522Z" fill="#66A5AF"/>
<path d="M1214.38 821.977H1576.62V789.889H1214.38V821.977Z" fill="#94624F"/>
<path d="M1576.33 837.364C1580.71 826.862 1575.75 814.796 1565.26 810.415C1554.77 806.034 1542.72 810.996 1538.35 821.499C1533.97 832.001 1538.93 844.067 1549.42 848.448C1559.9 852.829 1571.95 847.867 1576.33 837.364Z" fill="#94624F"/>
<path d="M1557.36 862.656C1564.33 862.656 1569.98 856.996 1569.98 850.014C1569.98 843.032 1564.33 837.372 1557.36 837.372C1550.38 837.372 1544.73 843.032 1544.73 850.014C1544.73 856.996 1550.38 862.656 1557.36 862.656Z" fill="#94624F"/>
<path d="M1237.55 850.017C1248.6 847.319 1255.36 836.17 1252.67 825.114C1249.97 814.059 1238.84 807.284 1227.8 809.982C1216.76 812.68 1209.99 823.83 1212.68 834.885C1215.38 845.94 1226.51 852.715 1237.55 850.017Z" fill="#94624F"/>
<path d="M1220.04 850.562C1220.04 857.546 1225.69 863.204 1232.66 863.204C1239.64 863.204 1245.29 857.546 1245.29 850.562C1245.29 843.578 1239.63 837.92 1232.66 837.92C1225.69 837.92 1220.04 843.578 1220.04 850.562Z" fill="#94624F"/>
<path d="M1238.67 543.252C1239.62 547.543 1257.73 627.532 1258.58 633.815C1259.43 640.098 1258.29 659.919 1258.33 656.392C1258.37 652.865 1258.05 663.869 1264.96 662.779C1268.4 662.237 1294.69 653.747 1321.37 649.533C1348.12 645.305 1375.28 645.353 1377.91 644.881C1383.15 643.937 1385.02 641.077 1386.78 632.941C1388.55 624.804 1376.72 591.911 1374.88 581.269C1373.04 570.619 1372.09 530.659 1370.87 525.431C1369.26 518.517 1362.61 516.344 1356.92 517.121C1353.66 517.565 1320.23 524.591 1294.13 528.132C1268.38 531.631 1249.95 531.645 1247.25 532.012C1241.82 532.734 1237.73 538.962 1238.67 543.252Z" fill="#00A09D"/>
<path d="M1239.15 543.19C1240.09 547.48 1258.21 627.47 1259.05 633.753C1259.9 640.036 1258.76 659.856 1258.8 656.329C1258.84 652.803 1258.52 663.806 1265.43 662.716C1268.88 662.175 1295.16 653.684 1321.84 649.47C1348.6 645.242 1375.75 645.291 1378.38 644.819C1383.62 643.875 1385.49 641.015 1387.26 632.878C1388.06 629.185 1386.06 620.382 1383.46 610.878C1327.36 639.564 1255.02 632.718 1254.25 531.603C1250.79 531.756 1248.53 531.832 1247.72 531.943C1242.29 532.672 1238.2 538.892 1239.15 543.19Z" fill="#1D7E8E"/>
<path d="M1206.65 585.33H1243.85C1257.6 585.33 1268.74 596.486 1268.74 610.253V709.667H1519.39V610.253C1519.39 596.486 1530.53 585.33 1544.28 585.33H1581.48C1595.23 585.33 1606.37 596.486 1606.37 610.253V709.667L1600.65 781.868H1519.39H1268.74H1187.48L1181.76 709.667V610.253C1181.76 596.486 1192.91 585.33 1206.65 585.33Z" fill="#66BBC4"/>
<path d="M1209.8 803.646H1578.91C1590.92 803.646 1600.65 793.899 1600.65 781.875H1188.05C1188.05 793.892 1197.79 803.646 1209.8 803.646Z" fill="#66A5AF"/>
<path d="M1556.62 469.552C1555.97 424.753 1512.13 367.007 1422.12 367.007H1363.72C1275.78 367.007 1232.09 424.253 1232.09 469.552C1317.67 447.163 1292.4 504.528 1394.07 504.528C1495.74 504.535 1480.1 453.724 1556.62 469.552Z" fill="#8ED2CC"/>
<path d="M1574.91 669.846C1605.67 669.846 1630.6 644.878 1630.6 614.078C1630.6 583.278 1605.67 558.31 1574.91 558.31C1544.15 558.31 1519.21 583.278 1519.21 614.078C1519.21 644.878 1544.15 669.846 1574.91 669.846Z" fill="#66BBC4"/>
<path d="M1591.44 636.563C1603.86 627.481 1606.58 610.033 1597.51 597.593C1588.44 585.153 1571.01 582.431 1558.59 591.514C1546.17 600.596 1543.45 618.043 1552.52 630.483C1561.59 642.924 1579.01 645.645 1591.44 636.563Z" fill="#8ED2CC"/>
<path d="M1213.24 669.846C1244 669.846 1268.93 644.878 1268.93 614.078C1268.93 583.278 1244 558.31 1213.24 558.31C1182.48 558.31 1157.54 583.278 1157.54 614.078C1157.54 644.878 1182.48 669.846 1213.24 669.846Z" fill="#66BBC4"/>
<path d="M1232.91 633.801C1243.79 622.91 1243.79 605.253 1232.91 594.363C1222.04 583.472 1204.4 583.472 1193.53 594.363C1182.65 605.253 1182.65 622.91 1193.53 633.801C1204.4 644.692 1222.04 644.692 1232.91 633.801Z" fill="#8ED2CC"/>
<path d="M1384.62 435.771C1384.62 441.151 1388.98 445.518 1394.36 445.518C1399.73 445.518 1404.09 441.151 1404.09 435.771C1404.09 430.39 1399.73 426.024 1394.36 426.024C1388.98 426.024 1384.62 430.39 1384.62 435.771Z" fill="#66A5AF"/>
<path d="M1511.67 848.278C1497.99 847.633 1484.34 849.833 1470.82 852.027C1466.55 852.722 1462.03 855.096 1465.25 860.205C1467.02 863.01 1470.68 863.829 1473.96 864.211C1488.09 865.836 1502.61 864.038 1516.8 864.058" fill="#0B2D4E"/>
<path d="M1612.33 829.291C1614.41 841.996 1608.45 860.351 1594.6 864.065C1589.02 865.558 1582.29 865.03 1576.52 864.996C1569.51 864.954 1562.49 864.891 1555.47 864.843C1541.69 864.746 1527.91 864.641 1514.11 864.544C1505.03 864.482 1495.37 864.246 1487.79 859.233C1478.78 853.277 1474.29 842.266 1480.28 832.783C1485.42 824.64 1495.06 819.648 1504.23 817.67C1519.61 814.351 1535.59 818.746 1550.88 815.99C1553.35 815.545 1555.8 814.914 1558.23 814.032C1572.04 809.019 1585.75 802.112 1599.85 810.297C1606.61 814.226 1611.06 821.564 1612.33 829.291Z" fill="#061F33"/>
<path d="M1498.14 801.931C1495.84 799.495 1494.42 799.016 1493.04 802.487C1491.43 806.485 1490.35 810.838 1490.4 815.177C1484.64 816.385 1479.18 819.03 1474.57 822.731C1471.03 820.21 1466.82 818.614 1462.6 817.663C1458.96 816.843 1458.55 818.28 1459.24 821.557C1460.1 825.605 1461.48 829.52 1462.81 833.429C1463.65 835.879 1464.41 838.351 1465.26 840.794C1465.86 843.328 1467.05 845.737 1468.51 847.556C1472.53 852.569 1480.54 855.478 1486.75 856.304C1493.77 857.234 1500.43 855.436 1505.16 850.09C1509.41 845.293 1512.31 838.746 1513.41 832.464C1514.05 828.888 1513.75 825.063 1512.49 821.606C1511.08 817.725 1508.3 814.9 1505.87 811.651C1503.4 808.325 1500.99 804.944 1498.14 801.931Z" fill="#0B2D4E"/>
<path d="M1601.96 819.19C1615.19 831.797 1613.8 846.335 1606.49 859.192C1598.39 873.451 1585.04 883.101 1570.15 889.384C1552.57 896.799 1532.45 900.596 1513.62 896.153C1509.83 895.257 1505.69 893.397 1504.57 889.669C1501.27 878.63 1518.47 878.825 1524.6 878.304C1537.21 877.228 1550.56 877.096 1562.81 872.993C1576.27 868.488 1585.84 858.879 1592.57 846.591" fill="#0B2D4E"/>
<path d="M1611.55 839.517C1611.5 833.588 1609.48 827.68 1605.8 823.043C1596.44 811.255 1578.22 810.887 1565.67 817.274C1551.28 824.605 1549 844.016 1554.63 857.692C1554.89 858.317 1549.59 858.137 1549.15 858.164C1545.34 858.435 1537.47 857.706 1535.95 862.371C1534.93 865.502 1537.02 869.73 1540.15 870.744C1541.46 871.167 1542.87 871.167 1544.24 871.167C1554.1 871.153 1563.95 871.188 1573.81 871.202C1581.53 871.216 1587.36 869.786 1591.98 863.197C1594.39 859.768 1596.21 855.936 1598.78 852.617" fill="#0B2D4E"/>
<path d="M1496.7 843.863C1497.26 845.307 1496.36 847.001 1494.69 847.647C1493.02 848.292 1491.21 847.654 1490.65 846.21C1490.08 844.766 1490.99 843.072 1492.66 842.426C1494.34 841.78 1496.15 842.419 1496.7 843.863Z" fill="#061F33"/>
<path d="M1510.59 817.427C1511.04 818.301 1511.65 819.044 1512.21 819.87C1512.49 820.28 1512.74 820.717 1512.95 821.189C1513.16 821.675 1513.29 822.161 1513.41 822.647C1513.64 823.626 1513.77 824.605 1513.91 825.577C1514.06 826.528 1514.16 827.549 1514.21 828.534C1514.33 830.534 1514.18 832.54 1513.87 834.519C1513.55 836.497 1513.01 838.434 1512.3 840.315C1511.57 842.183 1510.68 843.988 1509.6 845.675C1508.51 847.355 1507.28 848.945 1505.85 850.347C1504.44 851.763 1502.88 853.013 1501.17 854.054C1500.3 854.554 1499.39 854.998 1498.42 855.262C1497.45 855.533 1496.43 855.609 1495.46 855.422C1497.44 855.401 1499.18 854.464 1500.68 853.318C1501.43 852.749 1502.15 852.104 1502.84 851.451C1503.18 851.118 1503.53 850.791 1503.85 850.437C1504.19 850.097 1504.5 849.743 1504.82 849.382C1506.05 847.938 1507.19 846.411 1508.14 844.772C1509.12 843.148 1509.95 841.44 1510.62 839.663C1511.98 836.129 1512.73 832.36 1512.81 828.548C1512.84 827.59 1512.79 826.66 1512.75 825.674C1512.71 824.702 1512.67 823.737 1512.55 822.8C1512.5 822.328 1512.43 821.856 1512.31 821.425C1512.19 820.981 1511.99 820.551 1511.79 820.113C1511.35 819.252 1510.86 818.378 1510.59 817.427Z" fill="#73B8D4"/>
<path d="M1452.08 655.219C1448.34 657.058 1444.41 658.572 1440.5 659.939C1423.02 666.076 1404.85 670.214 1386.45 672.234C1367.23 674.345 1346.83 673.935 1329.81 664.75C1301.57 649.505 1305.04 622.659 1305.04 595.299C1305.04 591.071 1308.47 587.649 1312.68 587.649C1354.88 587.649 1397.09 587.649 1439.3 587.649C1446.09 587.649 1453.67 586.697 1460.42 587.649C1464.23 588.183 1467.45 588.475 1469.17 592.8C1470.37 595.834 1469.62 602.582 1470.16 606.039C1472.17 618.917 1475.06 635.28 1465.43 645.68C1461.68 649.734 1457.05 652.768 1452.08 655.219Z" fill="#0B2D4E"/>
<path d="M1324.16 567.988C1323.61 566.731 1323.05 565.447 1322.46 564.121C1316.29 550.32 1311.77 535.768 1309.03 520.898C1308.05 515.538 1307.04 509.672 1302.95 506.069C1297.29 501.091 1286.26 501.73 1279.25 502.667C1275.97 503.105 1272.54 504.236 1270.57 506.888C1267.29 511.283 1267.61 521.203 1267.49 526.493C1266.71 558.678 1292.12 585.281 1312.81 606.997C1316.79 611.176 1321.11 615.404 1326.63 617.098C1332.15 618.785 1339.16 617.029 1341.57 611.78C1343.35 607.927 1342.26 603.401 1340.86 599.402C1338.44 592.515 1334.82 586.212 1330.69 580.234C1327.89 576.208 1326.05 572.257 1324.16 567.988Z" fill="#F8A17A"/>
<path d="M1449.07 567.988C1449.62 566.731 1450.18 565.447 1450.77 564.121C1456.94 550.32 1461.46 535.768 1464.19 520.898C1465.18 515.538 1466.18 509.672 1470.28 506.069C1475.94 501.091 1486.96 501.73 1493.98 502.667C1497.26 503.105 1500.69 504.236 1502.66 506.888C1505.94 511.283 1505.61 521.203 1505.74 526.493C1506.52 558.678 1481.11 585.281 1460.42 606.997C1456.44 611.176 1452.12 615.404 1446.6 617.098C1441.08 618.785 1434.07 617.029 1431.66 611.78C1429.88 607.927 1430.97 603.401 1432.37 599.402C1434.78 592.515 1438.41 586.212 1442.54 580.234C1445.34 576.208 1447.18 572.257 1449.07 567.988Z" fill="#F8A17A"/>
<path d="M1285.86 464.269C1283.89 469.24 1282 474.245 1280.14 479.258C1273.76 496.412 1258.59 525.515 1275.7 541.322C1277.64 543.113 1282.3 543.016 1284.7 542.537C1291.58 541.176 1295.05 534.755 1298.42 529.291C1308.53 512.9 1315.87 494.94 1325.62 478.32C1332.66 466.324 1336.22 452.023 1339.6 438.659C1341.83 429.814 1344.71 417.151 1337.26 409.827C1334.23 406.849 1329.82 405.335 1325.6 405.828C1323.06 406.127 1320.64 407.099 1318.35 408.23C1316.38 409.195 1314.46 410.299 1312.8 411.722C1308.67 415.256 1306.66 420.366 1304.2 425.066C1301.3 430.599 1298.34 436.076 1295.63 441.706C1292.08 449.1 1288.88 456.646 1285.86 464.269Z" fill="#F8A17A"/>
<path d="M1293.56 437.194C1303.01 419.838 1315.3 404.225 1334.25 397.852C1339.68 396.026 1346.38 395.581 1350.45 399.608C1353 402.135 1353.93 405.953 1353.71 409.536C1353.4 414.735 1351.05 419.671 1349.85 424.705C1346.65 438.117 1341.81 451.19 1335.43 463.408C1334.06 466.039 1323.96 494.642 1324.78 495.35C1318.12 489.56 1308.64 482.347 1300.68 478.556C1298.56 477.55 1279.28 467.608 1278.71 468.865C1283.18 458.785 1287.85 447.67 1293.56 437.194Z" fill="#D74034"/>
<path d="M1489.55 464.269C1491.52 469.24 1493.41 474.245 1495.28 479.258C1501.66 496.412 1516.82 525.515 1499.71 541.322C1497.77 543.113 1493.11 543.016 1490.71 542.537C1483.83 541.176 1480.36 534.755 1476.99 529.291C1466.88 512.9 1459.54 494.94 1449.79 478.32C1442.76 466.324 1439.19 452.023 1435.82 438.659C1433.58 429.814 1430.71 417.151 1438.15 409.827C1441.18 406.849 1445.59 405.335 1449.81 405.828C1452.35 406.127 1454.77 407.099 1457.07 408.23C1459.03 409.195 1460.95 410.299 1462.61 411.722C1466.75 415.256 1468.75 420.366 1471.21 425.066C1474.11 430.599 1477.07 436.076 1479.78 441.706C1483.33 449.1 1486.53 456.646 1489.55 464.269Z" fill="#F8A17A"/>
<path d="M1481.77 437.194C1472.32 419.838 1460.03 404.225 1441.08 397.852C1435.65 396.026 1428.95 395.581 1424.88 399.608C1422.32 402.135 1421.4 405.953 1421.62 409.536C1421.93 414.735 1424.28 419.671 1425.48 424.705C1428.68 438.117 1433.51 451.19 1439.9 463.408C1441.28 466.039 1451.37 494.642 1450.55 495.35C1457.21 489.56 1466.69 482.347 1474.65 478.556C1476.76 477.55 1496.05 467.608 1496.61 468.865C1492.14 458.785 1487.48 447.67 1481.77 437.194Z" fill="#D74034"/>
<path d="M1454.88 570.494C1454.76 569.98 1454.63 569.46 1454.52 568.939C1450.04 549.563 1449.39 529.569 1449.95 509.762C1450.5 490.344 1454.82 471.239 1455.38 451.814C1456.03 429.411 1452.13 397.588 1424.13 394.998C1412.56 393.929 1400.91 392.679 1389.25 392.541V392.513C1388.83 392.513 1388.41 392.527 1388 392.527C1387.58 392.527 1387.17 392.513 1386.75 392.513V392.541C1375.09 392.679 1363.44 393.929 1351.86 394.998C1323.86 397.588 1319.97 429.411 1320.61 451.814C1321.17 471.246 1325.49 490.344 1326.04 509.762C1326.6 529.562 1325.94 549.563 1321.48 568.939C1321.36 569.46 1321.24 569.973 1321.11 570.494C1320.23 574.132 1318.82 577.825 1319.48 581.518C1320.92 589.481 1340.07 593.348 1346.53 595.063C1358.57 598.263 1371 599.687 1383.39 600.603C1384.52 600.686 1385.63 600.77 1386.73 600.846V601.02C1387.15 600.992 1387.57 600.964 1388 600.936C1388.42 600.964 1388.85 600.999 1389.27 601.02V600.846C1390.36 600.77 1391.47 600.686 1392.6 600.603C1405 599.687 1417.43 598.263 1429.47 595.063C1435.92 593.348 1455.08 589.481 1456.51 581.518C1457.19 577.825 1455.76 574.132 1454.88 570.494Z" fill="#EF5132"/>
<path d="M1369.98 413.708C1387.27 425.135 1420.92 416.277 1411.38 393.61C1410.23 390.861 1408.82 388.195 1408.05 385.328C1406.77 380.565 1406.9 375.664 1407.03 370.818C1407.18 365.167 1407.23 359.495 1407.54 353.851C1401.21 352.671 1396.09 352.074 1389.38 352.324C1383.82 352.525 1378.28 352.011 1372.72 352.303C1372.28 352.324 1371.79 352.365 1371.48 352.629C1371.16 352.893 1371.1 353.309 1371.06 353.691C1370.32 361.328 1371.05 369.055 1370.46 376.705C1370.14 380.982 1369.55 385.876 1367.6 389.847C1364.6 395.956 1360.13 401.628 1364.43 408.251C1365.85 410.417 1367.74 412.229 1369.98 413.708Z" fill="#F8A17A"/>
<path d="M1407.8 384.3C1406.8 379.878 1407.06 375.24 1407.18 370.756C1407.33 365.104 1407.38 359.433 1407.69 353.789C1401.37 352.608 1396.24 352.011 1389.53 352.261C1383.98 352.463 1378.43 351.949 1372.88 352.24C1372.43 352.261 1371.95 352.303 1371.63 352.567C1371.31 352.83 1371.25 353.247 1371.21 353.629C1370.47 361.265 1371.2 368.992 1370.62 376.643C1370.45 378.836 1370.14 381.023 1369.68 383.182C1370.55 383.856 1371.44 384.508 1372.35 385.105C1379.21 389.597 1388.45 391.083 1396.65 389.028C1400.83 387.966 1404.43 386.417 1407.8 384.3Z" fill="#E5785C"/>
<path d="M1294.99 497.995L1293.41 501.737H1481.44L1479.56 497.53L1294.99 497.995Z" fill="#B8D1CE"/>
<path d="M1468.47 620.715H1306.32L1294.7 499.835C1294.49 497.669 1296.17 495.787 1298.3 495.787H1476.47C1478.62 495.787 1480.29 497.669 1480.08 499.835L1468.47 620.715Z" fill="#B8D1CE"/>
<path d="M1469.74 624.131H1305.04L1293.24 503.25C1293.02 501.084 1294.73 499.203 1296.91 499.203H1477.88C1480.06 499.203 1481.76 501.077 1481.55 503.25L1469.74 624.131Z" fill="white"/>
<path d="M1469.64 624.131H1305.04V631.469H1469.64V624.131Z" fill="#B8D1CE"/>
<path d="M1398.81 561.67C1398.81 567.988 1393.7 573.104 1387.39 573.104C1381.08 573.104 1375.97 567.988 1375.97 561.67C1375.97 555.353 1381.08 550.236 1387.39 550.236C1393.7 550.236 1398.81 555.353 1398.81 561.67Z" fill="#B8D1CE"/>
<path d="M1378.42 650.609C1372.45 652.754 1366.46 654.83 1360.46 656.746C1354.32 658.704 1319.13 664.368 1326.11 677.948C1327.48 680.614 1330.8 681.481 1333.75 682.03C1350.68 685.161 1367.92 683.751 1385.02 681.69" fill="#F8A17A"/>
<path d="M1352.94 684.342C1345.66 686.438 1337.85 687.487 1331.02 689.056C1327.94 689.764 1324.86 690.465 1321.75 690.965C1316.8 691.756 1311.79 692.027 1306.78 692.291C1303.15 692.485 1299.51 692.679 1295.87 692.867C1293.89 692.971 1291.83 693.061 1290.02 692.235C1287.87 691.249 1286.49 689.139 1285.22 687.132C1282.7 683.155 1279.72 679.413 1277.62 675.185C1276.25 672.415 1274.81 669.707 1276.32 666.666C1277.06 665.174 1278.24 663.952 1279.44 662.8C1280.98 661.328 1282.62 659.939 1284.47 658.884C1290.56 655.406 1297.01 656.933 1303.47 658.252C1310.31 659.641 1317.14 661.237 1324.12 661.647C1331.64 662.091 1339.13 661.154 1346.59 660.377" fill="#D5EFF7"/>
<path d="M1327.43 693.665C1328.59 693.589 1329.74 693.512 1330.89 693.443C1333.61 693.276 1336.99 692.964 1339.08 691.027C1339.41 690.729 1339.71 690.381 1339.88 689.972C1340.29 688.951 1339.73 687.743 1338.85 687.084C1337.97 686.424 1336.84 686.195 1335.76 686.029C1337.02 686.223 1338.93 681.523 1339.14 680.655C1339.73 678.295 1340.02 675.518 1339.79 673.088C1339.57 670.783 1338.99 668.576 1337.47 666.805C1336.69 665.896 1333.99 663.133 1332.59 663.542C1333.81 663.188 1334.42 661.661 1334.06 660.446C1333.69 659.231 1332.57 658.356 1331.36 657.954C1330.15 657.558 1328.86 657.558 1327.59 657.572C1320.92 657.669 1314.14 658.127 1307.55 656.836C1301.71 655.691 1296.23 655.343 1290.25 655.829C1285.79 656.19 1281.41 657.371 1277.33 659.189C1276.22 659.682 1275.14 660.3 1274.14 661.022C1260.76 670.603 1270.79 687.445 1282.49 692.964C1291.13 697.046 1300 695.942 1309.17 695.116C1315.27 694.554 1321.32 694.075 1327.43 693.665Z" fill="#D74034"/>
<path d="M1418.65 359.683C1413.41 366.014 1406.07 370.193 1398.79 374.012C1397.01 374.949 1395.19 375.886 1393.23 376.344C1387.21 377.753 1381.13 374.484 1376.11 370.874C1369.17 365.882 1362.88 359.988 1357.45 353.386C1351.99 346.742 1348.93 339.48 1345.36 331.663C1341.78 323.791 1340.99 315.883 1341.74 307.282C1342.52 298.444 1337.59 290.551 1339.82 281.616C1341.23 275.944 1344.68 270.8 1349.4 267.342C1351.98 265.447 1354.97 264.038 1358.16 263.691C1365.26 262.92 1371.32 267.759 1378.34 268.085C1385.43 268.418 1392.25 265.836 1399.06 264.281C1405.02 262.92 1411.54 262.177 1417.44 264.204C1424.02 266.454 1427.18 271.494 1430.82 277.325C1433.92 282.31 1438.6 286.045 1442.34 290.467C1447.35 296.396 1448.93 303.935 1447.34 311.648C1445.99 318.174 1443.46 324.874 1440.14 330.657C1437.26 335.697 1434.12 341.001 1430.71 345.77C1428.13 349.401 1425.29 352.081 1422.27 355.253C1420.97 356.635 1419.87 358.204 1418.65 359.683Z" fill="#0B2D4E"/>
<path d="M1425.09 329.379C1424.97 322.131 1423.91 315.265 1421.99 309.573C1413.71 285.017 1382.96 279.234 1364.65 297.104C1344.23 317.029 1352.59 364.112 1374.46 380.454C1380.32 384.828 1388.22 386.3 1395.25 384.342C1416.52 378.399 1425.45 352.025 1425.09 329.379Z" fill="#F8A17A"/>
<path d="M1430.12 309.489C1420.8 284.941 1386.09 279.2 1365.41 297.09C1360.57 301.277 1355.42 307.858 1353.17 313.884C1350.77 320.34 1351.4 327.477 1352.06 334.329C1352.58 328.664 1355.22 323.582 1358.94 319.354C1360.77 317.272 1362.82 315.39 1364.98 313.648C1365.76 313.016 1371.62 307.677 1371.06 306.942C1373.15 309.663 1375.22 312.37 1378.43 313.738C1382.45 315.446 1386.63 316.432 1390.88 317.355C1398.39 318.993 1404.28 321.104 1409.73 326.734C1414.77 331.941 1418.41 338.404 1420.83 345.208C1421.6 347.36 1422.91 350.664 1425.71 349.699C1426.38 349.47 1432.16 345.159 1432.22 344.861C1433.24 339.661 1433.69 334.378 1433.6 329.289C1433.47 322.041 1432.27 315.182 1430.12 309.489Z" fill="#E5785C"/>
<path d="M1413.51 324.471C1415.38 327.533 1416.52 330.976 1417.65 334.385C1419.43 339.772 1420.85 345.562 1423.14 350.741C1430.95 346.027 1436.09 334.898 1439.65 326.852C1442.81 319.715 1443.69 314.044 1441.02 306.56C1439.29 301.721 1435.98 297.417 1432.05 293.73C1420.71 283.088 1403.69 277.666 1387.29 278.749C1381.53 279.13 1376.83 281.165 1371.41 282.734C1366.44 284.178 1362.64 285.122 1358.99 289.218C1355.74 292.862 1353.66 297.396 1352.03 301.999C1349.36 309.503 1347.85 317.237 1348.44 325.207C1348.82 330.303 1348.85 335.35 1353.89 338.12C1353.8 335.086 1353.72 332.052 1353.63 329.018C1353.59 327.567 1353.55 326.102 1353.79 324.672C1354.01 323.395 1354.45 322.166 1354.89 320.951C1356.24 317.23 1357.47 314.252 1360.02 311.19C1363.36 307.184 1367.76 303.554 1368.69 298.423C1376.59 306.101 1385.9 310.913 1396.27 314.495C1402.85 316.765 1409.53 318.07 1413.44 324.36C1413.46 324.388 1413.48 324.429 1413.51 324.471Z" fill="#0B2D4E"/>
<path d="M1425.24 330.025C1434.63 324.762 1437.67 337.821 1436.11 344.354C1435.46 347.054 1434.43 349.686 1432.78 351.914C1430.56 354.92 1424.19 359.926 1420.45 356.704C1418.76 355.239 1418.56 352.726 1418.48 350.491C1418.29 344.486 1418.87 333.593 1425.24 330.025Z" fill="#F8A17A"/>
<path d="M1357.36 330.025C1347.96 324.762 1344.93 337.821 1346.49 344.354C1347.13 347.054 1348.17 349.686 1349.82 351.914C1352.03 354.92 1358.41 359.926 1362.14 356.704C1363.83 355.239 1364.04 352.726 1364.11 350.491C1364.31 344.486 1363.72 333.593 1357.36 330.025Z" fill="#F8A17A"/>
<path d="M1439.16 330.08L1438.04 329.317L1438.6 328.484C1443.82 320.826 1453.53 306.574 1448.59 297.132C1446.92 293.918 1443.96 291.932 1440.82 289.822C1438.16 288.03 1435.41 286.177 1433.46 283.49C1431.91 281.352 1430.99 278.839 1430.1 276.402C1429.55 274.889 1428.98 273.32 1428.27 271.889C1424.08 263.461 1414.8 259.372 1404.65 261.476C1401.34 262.163 1397.98 263.586 1394.42 265.093C1387.89 267.863 1381.12 270.73 1374.37 268.883C1372.04 268.245 1369.89 266.995 1367.81 265.794C1365.8 264.628 1363.71 263.42 1361.48 262.781C1356.83 261.448 1351.62 262.17 1347.22 264.76C1341.4 268.175 1337.34 274.472 1336.6 281.185C1335.93 287.274 1337.11 293.091 1340 298.007C1340.35 298.604 1340.73 299.208 1341.09 299.805C1342.81 302.561 1344.59 305.414 1344.66 308.74L1343.3 308.767C1343.24 305.824 1341.56 303.13 1339.94 300.527C1339.56 299.916 1339.19 299.305 1338.83 298.701C1335.79 293.529 1334.56 287.426 1335.25 281.04C1336.03 273.91 1340.35 267.224 1346.53 263.593C1351.26 260.816 1356.85 260.046 1361.87 261.476C1364.26 262.156 1366.41 263.406 1368.49 264.621C1370.59 265.836 1372.57 266.981 1374.74 267.578C1381.03 269.3 1387.57 266.53 1393.9 263.85C1397.36 262.385 1400.94 260.865 1404.38 260.15C1415.16 257.921 1425.01 262.295 1429.49 271.292C1430.24 272.792 1430.82 274.396 1431.39 275.944C1432.28 278.394 1433.13 280.713 1434.57 282.699C1436.37 285.191 1439.02 286.968 1441.59 288.697C1444.72 290.807 1447.96 292.987 1449.8 296.507C1455.11 306.671 1445.48 320.812 1439.73 329.261L1439.16 330.08Z" fill="#0B2D4E"/>
<path d="M1367.77 278.769C1375.58 279.276 1383.19 277.582 1390.82 276.02C1394.67 275.305 1398.58 274.958 1402.49 274.833C1404.44 274.777 1406.41 274.784 1408.36 274.861C1410.31 274.951 1412.29 275.041 1414.26 275.444C1418.2 276.249 1421.91 278.374 1424.34 281.706C1425.56 283.442 1425.91 285.58 1426.04 287.531C1426.18 289.502 1426.12 291.432 1426.53 293.265C1426.87 295.119 1427.84 296.736 1429 298.277C1430.15 299.819 1431.46 301.325 1432.35 303.123C1433.22 304.935 1433.59 306.921 1433.69 308.871C1433.8 310.836 1433.65 312.78 1433.47 314.724C1433.51 312.78 1433.54 310.822 1433.34 308.899C1433.15 306.983 1432.69 305.081 1431.77 303.415C1430.87 301.742 1429.57 300.311 1428.34 298.777C1427.12 297.271 1425.97 295.487 1425.54 293.487C1425.04 291.516 1425.06 289.516 1424.91 287.607C1424.76 285.712 1424.42 283.844 1423.36 282.365C1422.86 281.63 1422.19 280.963 1421.48 280.338C1420.77 279.72 1420.02 279.165 1419.22 278.686C1417.62 277.721 1415.83 277.096 1413.98 276.714C1412.14 276.312 1410.23 276.201 1408.29 276.097C1406.36 275.999 1404.43 275.972 1402.5 276.006C1398.64 276.069 1394.78 276.444 1390.96 276.999C1387.16 277.603 1383.31 278.401 1379.43 278.797C1375.56 279.179 1371.63 279.276 1367.77 278.769Z" fill="#73B8D4"/>
<path d="M1371.2 685.397C1379.18 684.432 1403.1 680.787 1410.99 679.94C1450.52 675.678 1489.64 669.2 1526.26 652.886C1534.7 649.109 1543.62 642.917 1548.35 634.822C1560.78 613.523 1539.68 591.647 1517.56 596.618C1480.61 604.914 1450.38 620.326 1414.68 632.996C1408.73 635.113 1398.01 639.647 1391.97 641.882C1386.78 643.805 1369.39 649.005 1364.16 650.88" fill="#0B2D4E"/>
<path d="M1386.04 763.262C1387.98 769.115 1389.97 774.939 1392.09 780.674C1394.26 786.54 1410.97 816.85 1396.44 819.62C1393.58 820.162 1390.93 818.142 1388.76 816.212C1376.25 805.132 1367.03 791.101 1358.38 776.779" fill="#F8A17A"/>
<path d="M1375.52 802.917C1378.27 809.741 1382.13 816.344 1385.02 822.501C1386.31 825.278 1387.62 828.055 1389.1 830.735C1391.45 834.998 1394.24 838.99 1397.03 842.981C1399.06 845.876 1401.08 848.778 1403.1 851.673C1404.21 853.249 1405.38 854.888 1407.08 855.776C1409.12 856.831 1411.56 856.63 1413.85 856.408C1418.39 855.957 1423.03 856.005 1427.51 855.082C1430.44 854.478 1433.37 853.957 1434.78 850.986C1435.48 849.528 1435.71 847.897 1435.87 846.293C1436.07 844.231 1436.16 842.148 1435.86 840.1C1434.87 833.366 1429.85 829.34 1424.99 825.181C1419.84 820.78 1414.54 816.503 1410.06 811.414C1405.23 805.93 1401.47 799.633 1397.6 793.462" fill="#D5EFF7"/>
<path d="M1383.65 828C1383.02 827.076 1382.39 826.146 1381.76 825.223C1380.27 823.043 1378.48 820.266 1378.71 817.51C1378.74 817.079 1378.82 816.642 1379.04 816.267C1379.57 815.344 1380.84 815.052 1381.86 815.33C1382.89 815.608 1383.73 816.33 1384.51 817.066C1383.62 816.219 1386.06 811.949 1386.59 811.262C1388.04 809.401 1389.99 807.527 1391.98 806.249C1393.87 805.041 1395.91 804.174 1398.16 804.271C1399.32 804.326 1403.04 804.736 1403.57 806.055C1403.11 804.909 1403.9 803.528 1405.05 803.077C1406.2 802.632 1407.54 802.966 1408.56 803.653C1409.59 804.34 1410.36 805.333 1411.11 806.312C1415.02 811.477 1418.71 816.934 1423.64 821.203C1428.01 824.987 1431.54 828.965 1434.75 833.838C1437.14 837.469 1438.85 841.523 1439.91 845.738C1440.19 846.883 1440.36 848.07 1440.41 849.271C1441.09 865.232 1422.25 867.62 1411.05 861.969C1402.77 857.789 1398.31 850.347 1393.47 842.843C1390.24 837.837 1386.98 832.922 1383.65 828Z" fill="#D74034"/>
<path d="M1363.81 789.574C1359.77 782.888 1348.26 762.408 1344.2 755.876C1323.84 723.08 1305.4 689.278 1295.96 651.511C1293.8 642.799 1293.21 632.281 1296.55 623.818C1305.38 601.582 1334.68 604.65 1344.11 624.547C1359.86 657.78 1366.16 690.118 1377.82 724.996C1379.77 730.821 1382.71 741.727 1384.61 747.684C1386.24 752.8 1392.66 769.219 1394.36 774.335" fill="#0B2D4E"/>
<defs>
<clipPath id="clip0">
<rect x="616" y="-87" width="1685" height="1323" fill="white"/>
</clipPath>
</defs>
</svg>
